<?xml version="1.0" encoding="UTF-8" standalone="no"?>
<!DOCTYPE svg PUBLIC "-//W3C//DTD SVG 1.1//EN" "http://www.w3.org/Graphics/SVG/1.1/DTD/svg11.dtd">
<svg width="100%" height="100%" viewBox="0 0 400 400" version="1.1" xmlns="http://www.w3.org/2000/svg" xmlns:xlink="http://www.w3.org/1999/xlink" xml:space="preserve" xmlns:serif="http://www.serif.com/" style="fill-rule:evenodd;clip-rule:evenodd;stroke-linejoin:round;stroke-miterlimit:1.41421;">
    <g id="pumplogo" transform="matrix(1,0,0,1,-385.8,23.3628)">
        <g transform="matrix(1,0,0,0.762008,-430.7,57.8508)">
            <rect x="830" y="162" width="151" height="19.296"/>
        </g>
        <g transform="matrix(1.08642,0,0,1.18552,-582.465,13.7862)">
            <path d="M1247,30L1166,30L1166,141.296L1224,141.296L1247,30Z"/>
        </g>
        <g transform="matrix(1,0,0,1.11409,-285.13,-34.6174)">
            <path d="M995.9,58C995.9,58 898.807,58 823.568,58C800.644,58 778.658,66.174 762.447,80.724C746.237,95.275 737.13,115.009 737.13,135.586C737.13,171.779 737.13,207 737.13,207L995.9,207L995.9,58Z"/>
        </g>
        <g transform="matrix(0.828969,0,0,0.828969,-52.2582,53.689)">
            <circle cx="801.065" cy="153.935" r="63.935"/>
        </g>
        <g transform="matrix(0.522993,0,0,0.522993,192.848,100.789)">
            <circle cx="801.065" cy="153.935" r="63.935" style="fill:white;"/>
        </g>
    </g>
    <g transform="matrix(0.97691,0,0,1.00304,11.741,330.891)">
        <path d="M54.432,-33.696C57.552,-30.576 59.112,-26.832 59.112,-22.464L59.112,0L52.632,0L52.632,-22.464C52.632,-23.76 52.38,-24.984 51.876,-26.136C51.372,-27.288 50.688,-28.284 49.824,-29.124C48.96,-29.964 47.952,-30.636 46.8,-31.14C45.648,-31.644 44.424,-31.896 43.128,-31.896C41.832,-31.896 40.608,-31.644 39.456,-31.14C38.304,-30.636 37.308,-29.964 36.468,-29.124C35.628,-28.284 34.956,-27.288 34.452,-26.136C33.948,-24.984 33.696,-23.76 33.696,-22.464L33.696,0L27.216,0L27.216,-22.464C27.216,-23.76 26.964,-24.984 26.46,-26.136C25.956,-27.288 25.272,-28.284 24.408,-29.124C23.544,-29.964 22.536,-30.636 21.384,-31.14C20.232,-31.644 19.008,-31.896 17.712,-31.896C16.416,-31.896 15.192,-31.644 14.04,-31.14C12.888,-30.636 11.892,-29.964 11.052,-29.124C10.212,-28.284 9.54,-27.288 9.036,-26.136C8.532,-24.984 8.28,-23.76 8.28,-22.464L8.28,0L1.8,0L1.8,-38.376L8.28,-38.376L8.28,-35.28C11.064,-37.344 14.208,-38.376 17.712,-38.376C19.872,-38.376 21.912,-37.98 23.832,-37.188C25.752,-36.396 27.48,-35.232 29.016,-33.696C29.544,-33.168 30.024,-32.616 30.456,-32.04C30.888,-32.616 31.368,-33.168 31.896,-33.696C35.016,-36.816 38.76,-38.376 43.128,-38.376C45.288,-38.376 47.328,-37.98 49.248,-37.188C51.168,-36.396 52.896,-35.232 54.432,-33.696Z" style="fill-rule:nonzero;"/>
        <path d="M65.16,-38.376L71.64,-38.376L71.64,0L65.16,0L65.16,-38.376ZM68.4,-45.648C67.296,-45.648 66.372,-46.02 65.628,-46.764C64.884,-47.508 64.512,-48.432 64.512,-49.536C64.512,-50.64 64.884,-51.564 65.628,-52.308C66.372,-53.052 67.296,-53.424 68.4,-53.424C69.504,-53.424 70.428,-53.052 71.172,-52.308C71.916,-51.564 72.288,-50.64 72.288,-49.536C72.288,-48.432 71.916,-47.508 71.172,-46.764C70.428,-46.02 69.504,-45.648 68.4,-45.648Z" style="fill-rule:nonzero;"/>
        <path d="M105.624,-33.696C107.16,-32.16 108.324,-30.444 109.116,-28.548C109.908,-26.652 110.304,-24.624 110.304,-22.464L110.304,0L103.824,0L103.824,-22.464C103.824,-23.76 103.572,-24.984 103.068,-26.136C102.564,-27.288 101.88,-28.284 101.016,-29.124C100.152,-29.964 99.144,-30.636 97.992,-31.14C96.84,-31.644 95.616,-31.896 94.32,-31.896C93.024,-31.896 91.8,-31.644 90.648,-31.14C89.496,-30.636 88.5,-29.964 87.66,-29.124C86.82,-28.284 86.148,-27.288 85.644,-26.136C85.14,-24.984 84.888,-23.76 84.888,-22.464L84.888,0L78.408,0L78.408,-38.376L84.888,-38.376L84.888,-35.28C87.672,-37.344 90.816,-38.376 94.32,-38.376C96.48,-38.376 98.52,-37.98 100.44,-37.188C102.36,-36.396 104.088,-35.232 105.624,-33.696Z" style="fill-rule:nonzero;"/>
        <path d="M116.352,-38.376L122.832,-38.376L122.832,0L116.352,0L116.352,-38.376ZM119.592,-45.648C118.488,-45.648 117.564,-46.02 116.82,-46.764C116.076,-47.508 115.704,-48.432 115.704,-49.536C115.704,-50.64 116.076,-51.564 116.82,-52.308C117.564,-53.052 118.488,-53.424 119.592,-53.424C120.696,-53.424 121.62,-53.052 122.364,-52.308C123.108,-51.564 123.48,-50.64 123.48,-49.536C123.48,-48.432 123.108,-47.508 122.364,-46.764C121.62,-46.02 120.696,-45.648 119.592,-45.648Z" style="fill-rule:nonzero;"/>
        <path d="M161.64,-32.76C163.464,-30.936 164.856,-28.872 165.816,-26.568C166.776,-24.264 167.256,-21.816 167.256,-19.224C167.256,-16.632 166.776,-14.172 165.816,-11.844C164.856,-9.516 163.464,-7.44 161.64,-5.616C159.816,-3.792 157.74,-2.4 155.412,-1.44C153.084,-0.48 150.624,0 148.032,0C145.68,0 143.424,-0.42 141.264,-1.26C139.104,-2.1 137.136,-3.288 135.36,-4.824L135.36,15.696L128.88,15.696L128.88,-38.376L135.36,-38.376L135.36,-33.552C137.136,-35.088 139.104,-36.276 141.264,-37.116C143.424,-37.956 145.68,-38.376 148.032,-38.376C150.624,-38.376 153.084,-37.896 155.412,-36.936C157.74,-35.976 159.816,-34.584 161.64,-32.76ZM148.032,-6.48C149.808,-6.48 151.464,-6.816 153,-7.488C154.536,-8.16 155.88,-9.072 157.032,-10.224C158.184,-11.376 159.096,-12.72 159.768,-14.256C160.44,-15.792 160.776,-17.448 160.776,-19.224C160.776,-20.952 160.44,-22.584 159.768,-24.12C159.096,-25.656 158.184,-27 157.032,-28.152C155.88,-29.304 154.536,-30.216 153,-30.888C151.464,-31.56 149.808,-31.896 148.032,-31.896C146.304,-31.896 144.672,-31.56 143.136,-30.888C141.6,-30.216 140.256,-29.304 139.104,-28.152C137.952,-27 137.04,-25.656 136.368,-24.12C135.696,-22.584 135.36,-20.952 135.36,-19.224C135.36,-17.448 135.696,-15.792 136.368,-14.256C137.04,-12.72 137.952,-11.376 139.104,-10.224C140.256,-9.072 141.6,-8.16 143.136,-7.488C144.672,-6.816 146.304,-6.48 148.032,-6.48Z" style="fill-rule:nonzero;"/>
        <path d="M204.552,-38.376L204.552,0L198.072,0L198.072,-3.096C195.288,-1.032 192.12,0 188.568,0C184.2,0 180.456,-1.56 177.336,-4.68C175.8,-6.216 174.636,-7.944 173.844,-9.864C173.052,-11.784 172.656,-13.824 172.656,-15.984L172.656,-38.376L179.136,-38.376L179.136,-15.984C179.136,-14.688 179.388,-13.464 179.892,-12.312C180.396,-11.16 181.068,-10.152 181.908,-9.288C182.748,-8.424 183.744,-7.74 184.896,-7.236C186.048,-6.732 187.272,-6.48 188.568,-6.48C189.864,-6.48 191.088,-6.732 192.24,-7.236C193.392,-7.74 194.4,-8.424 195.264,-9.288C196.128,-10.152 196.812,-11.16 197.316,-12.312C197.82,-13.464 198.072,-14.688 198.072,-15.984L198.072,-38.376L204.552,-38.376Z" style="fill-rule:nonzero;"/>
        <path d="M262.656,-33.696C265.776,-30.576 267.336,-26.832 267.336,-22.464L267.336,0L260.856,0L260.856,-22.464C260.856,-23.76 260.604,-24.984 260.1,-26.136C259.596,-27.288 258.912,-28.284 258.048,-29.124C257.184,-29.964 256.176,-30.636 255.024,-31.14C253.872,-31.644 252.648,-31.896 251.352,-31.896C250.056,-31.896 248.832,-31.644 247.68,-31.14C246.528,-30.636 245.532,-29.964 244.692,-29.124C243.852,-28.284 243.18,-27.288 242.676,-26.136C242.172,-24.984 241.92,-23.76 241.92,-22.464L241.92,0L235.44,0L235.44,-22.464C235.44,-23.76 235.188,-24.984 234.684,-26.136C234.18,-27.288 233.496,-28.284 232.632,-29.124C231.768,-29.964 230.76,-30.636 229.608,-31.14C228.456,-31.644 227.232,-31.896 225.936,-31.896C224.64,-31.896 223.416,-31.644 222.264,-31.14C221.112,-30.636 220.116,-29.964 219.276,-29.124C218.436,-28.284 217.764,-27.288 217.26,-26.136C216.756,-24.984 216.504,-23.76 216.504,-22.464L216.504,0L210.024,0L210.024,-38.376L216.504,-38.376L216.504,-35.28C219.288,-37.344 222.432,-38.376 225.936,-38.376C228.096,-38.376 230.136,-37.98 232.056,-37.188C233.976,-36.396 235.704,-35.232 237.24,-33.696C237.768,-33.168 238.248,-32.616 238.68,-32.04C239.112,-32.616 239.592,-33.168 240.12,-33.696C243.24,-36.816 246.984,-38.376 251.352,-38.376C253.512,-38.376 255.552,-37.98 257.472,-37.188C259.392,-36.396 261.12,-35.232 262.656,-33.696Z" style="fill-rule:nonzero;"/>
        <path d="M303.696,-32.76C305.52,-30.936 306.912,-28.872 307.872,-26.568C308.832,-24.264 309.312,-21.816 309.312,-19.224C309.312,-16.632 308.832,-14.172 307.872,-11.844C306.912,-9.516 305.52,-7.44 303.696,-5.616C301.872,-3.792 299.796,-2.4 297.468,-1.44C295.14,-0.48 292.68,0 290.088,0C287.736,0 285.48,-0.42 283.32,-1.26C281.16,-2.1 279.192,-3.288 277.416,-4.824L277.416,15.696L270.936,15.696L270.936,-38.376L277.416,-38.376L277.416,-33.552C279.192,-35.088 281.16,-36.276 283.32,-37.116C285.48,-37.956 287.736,-38.376 290.088,-38.376C292.68,-38.376 295.14,-37.896 297.468,-36.936C299.796,-35.976 301.872,-34.584 303.696,-32.76ZM290.088,-6.48C291.864,-6.48 293.52,-6.816 295.056,-7.488C296.592,-8.16 297.936,-9.072 299.088,-10.224C300.24,-11.376 301.152,-12.72 301.824,-14.256C302.496,-15.792 302.832,-17.448 302.832,-19.224C302.832,-20.952 302.496,-22.584 301.824,-24.12C301.152,-25.656 300.24,-27 299.088,-28.152C297.936,-29.304 296.592,-30.216 295.056,-30.888C293.52,-31.56 291.864,-31.896 290.088,-31.896C288.36,-31.896 286.728,-31.56 285.192,-30.888C283.656,-30.216 282.312,-29.304 281.16,-28.152C280.008,-27 279.096,-25.656 278.424,-24.12C277.752,-22.584 277.416,-20.952 277.416,-19.224C277.416,-17.448 277.752,-15.792 278.424,-14.256C279.096,-12.72 280.008,-11.376 281.16,-10.224C282.312,-9.072 283.656,-8.16 285.192,-7.488C286.728,-6.816 288.36,-6.48 290.088,-6.48Z" style="fill-rule:nonzero;"/>
        <path d="M351.288,-38.376L351.288,0L344.808,0L344.808,-4.824C343.032,-3.288 341.064,-2.1 338.904,-1.26C336.744,-0.42 334.464,0 332.064,0C329.472,0 327.024,-0.48 324.72,-1.44C322.416,-2.4 320.352,-3.792 318.528,-5.616C316.704,-7.44 315.312,-9.516 314.352,-11.844C313.392,-14.172 312.912,-16.632 312.912,-19.224C312.912,-21.816 313.392,-24.264 314.352,-26.568C315.312,-28.872 316.704,-30.936 318.528,-32.76C320.352,-34.584 322.416,-35.976 324.72,-36.936C327.024,-37.896 329.472,-38.376 332.064,-38.376C334.464,-38.376 336.744,-37.956 338.904,-37.116C341.064,-36.276 343.032,-35.088 344.808,-33.552L344.808,-38.376L351.288,-38.376ZM332.064,-6.48C333.84,-6.48 335.496,-6.816 337.032,-7.488C338.568,-8.16 339.912,-9.072 341.064,-10.224C342.216,-11.376 343.128,-12.72 343.8,-14.256C344.472,-15.792 344.808,-17.448 344.808,-19.224C344.808,-20.952 344.472,-22.584 343.8,-24.12C343.128,-25.656 342.216,-27 341.064,-28.152C339.912,-29.304 338.568,-30.216 337.032,-30.888C335.496,-31.56 333.84,-31.896 332.064,-31.896C330.336,-31.896 328.704,-31.56 327.168,-30.888C325.632,-30.216 324.288,-29.304 323.136,-28.152C321.984,-27 321.072,-25.656 320.4,-24.12C319.728,-22.584 319.392,-20.952 319.392,-19.224C319.392,-17.448 319.728,-15.792 320.4,-14.256C321.072,-12.72 321.984,-11.376 323.136,-10.224C324.288,-9.072 325.632,-8.16 327.168,-7.488C328.704,-6.816 330.336,-6.48 332.064,-6.48Z" style="fill-rule:nonzero;"/>
        <path d="M374.904,-38.376C377.928,-38.52 380.832,-37.968 383.616,-36.72L381.024,-30.816C379.2,-31.632 377.28,-31.992 375.264,-31.896C373.152,-31.752 371.208,-31.176 369.432,-30.168C367.416,-28.968 365.88,-27.408 364.824,-25.488C363.72,-23.52 363.168,-21.456 363.168,-19.296L363.168,0L356.688,0L356.688,-38.376L363.168,-38.376L363.168,-33.552C364.08,-34.416 365.088,-35.136 366.192,-35.712C368.928,-37.344 371.832,-38.232 374.904,-38.376Z" style="fill-rule:nonzero;"/>
    </g>
</svg>
