<?xml version="1.0" encoding="UTF-8" standalone="no"?>
<!DOCTYPE svg PUBLIC "-//W3C//DTD SVG 1.1//EN" "http://www.w3.org/Graphics/SVG/1.1/DTD/svg11.dtd">
<svg width="100%" height="100%" viewBox="0 0 400 400" version="1.1" xmlns="http://www.w3.org/2000/svg" xmlns:xlink="http://www.w3.org/1999/xlink" xml:space="preserve" xmlns:serif="http://www.serif.com/" style="fill-rule:evenodd;clip-rule:evenodd;stroke-linejoin:round;stroke-miterlimit:1.41421;">
    <g transform="matrix(0.97691,0,0,1.00304,-498.206,-545.356)">
        <path d="M576.432,709.398C579.552,712.518 581.112,716.262 581.112,720.63L581.112,743.094L574.632,743.094L574.632,720.63C574.632,719.334 574.38,718.11 573.876,716.958C573.372,715.806 572.688,714.81 571.824,713.97C570.96,713.13 569.952,712.458 568.8,711.954C567.648,711.45 566.424,711.198 565.128,711.198C563.832,711.198 562.608,711.45 561.456,711.954C560.304,712.458 559.308,713.13 558.468,713.97C557.628,714.81 556.956,715.806 556.452,716.958C555.948,718.11 555.696,719.334 555.696,720.63L555.696,743.094L549.216,743.094L549.216,720.63C549.216,719.334 548.964,718.11 548.46,716.958C547.956,715.806 547.272,714.81 546.408,713.97C545.544,713.13 544.536,712.458 543.384,711.954C542.232,711.45 541.008,711.198 539.712,711.198C538.416,711.198 537.192,711.45 536.04,711.954C534.888,712.458 533.892,713.13 533.052,713.97C532.212,714.81 531.54,715.806 531.036,716.958C530.532,718.11 530.28,719.334 530.28,720.63L530.28,743.094L523.8,743.094L523.8,704.718L530.28,704.718L530.28,707.814C533.064,705.75 536.208,704.718 539.712,704.718C541.872,704.718 543.912,705.114 545.832,705.906C547.752,706.698 549.48,707.862 551.016,709.398C551.544,709.926 552.024,710.478 552.456,711.054C552.888,710.478 553.368,709.926 553.896,709.398C557.016,706.278 560.76,704.718 565.128,704.718C567.288,704.718 569.328,705.114 571.248,705.906C573.168,706.698 574.896,707.862 576.432,709.398Z" style="fill-rule:nonzero;"/>
        <path d="M587.16,704.718L593.64,704.718L593.64,743.094L587.16,743.094L587.16,704.718ZM590.4,697.446C589.296,697.446 588.372,697.074 587.628,696.33C586.884,695.586 586.512,694.662 586.512,693.558C586.512,692.454 586.884,691.53 587.628,690.786C588.372,690.042 589.296,689.67 590.4,689.67C591.504,689.67 592.428,690.042 593.172,690.786C593.916,691.53 594.288,692.454 594.288,693.558C594.288,694.662 593.916,695.586 593.172,696.33C592.428,697.074 591.504,697.446 590.4,697.446Z" style="fill-rule:nonzero;"/>
        <path d="M627.624,709.398C629.16,710.934 630.324,712.65 631.116,714.546C631.908,716.442 632.304,718.47 632.304,720.63L632.304,743.094L625.824,743.094L625.824,720.63C625.824,719.334 625.572,718.11 625.068,716.958C624.564,715.806 623.88,714.81 623.016,713.97C622.152,713.13 621.144,712.458 619.992,711.954C618.84,711.45 617.616,711.198 616.32,711.198C615.024,711.198 613.8,711.45 612.648,711.954C611.496,712.458 610.5,713.13 609.66,713.97C608.82,714.81 608.148,715.806 607.644,716.958C607.14,718.11 606.888,719.334 606.888,720.63L606.888,743.094L600.408,743.094L600.408,704.718L606.888,704.718L606.888,707.814C609.672,705.75 612.816,704.718 616.32,704.718C618.48,704.718 620.52,705.114 622.44,705.906C624.36,706.698 626.088,707.862 627.624,709.398Z" style="fill-rule:nonzero;"/>
        <path d="M638.352,704.718L644.832,704.718L644.832,743.094L638.352,743.094L638.352,704.718ZM641.592,697.446C640.488,697.446 639.564,697.074 638.82,696.33C638.076,695.586 637.704,694.662 637.704,693.558C637.704,692.454 638.076,691.53 638.82,690.786C639.564,690.042 640.488,689.67 641.592,689.67C642.696,689.67 643.62,690.042 644.364,690.786C645.108,691.53 645.48,692.454 645.48,693.558C645.48,694.662 645.108,695.586 644.364,696.33C643.62,697.074 642.696,697.446 641.592,697.446Z" style="fill-rule:nonzero;"/>
        <path d="M683.64,710.334C685.464,712.158 686.856,714.222 687.816,716.526C688.776,718.83 689.256,721.278 689.256,723.87C689.256,726.462 688.776,728.922 687.816,731.25C686.856,733.578 685.464,735.654 683.64,737.478C681.816,739.302 679.74,740.694 677.412,741.654C675.084,742.614 672.624,743.094 670.032,743.094C667.68,743.094 665.424,742.674 663.264,741.834C661.104,740.994 659.136,739.806 657.36,738.27L657.36,758.79L650.88,758.79L650.88,704.718L657.36,704.718L657.36,709.542C659.136,708.006 661.104,706.818 663.264,705.978C665.424,705.138 667.68,704.718 670.032,704.718C672.624,704.718 675.084,705.198 677.412,706.158C679.74,707.118 681.816,708.51 683.64,710.334ZM670.032,736.614C671.808,736.614 673.464,736.278 675,735.606C676.536,734.934 677.88,734.022 679.032,732.87C680.184,731.718 681.096,730.374 681.768,728.838C682.44,727.302 682.776,725.646 682.776,723.87C682.776,722.142 682.44,720.51 681.768,718.974C681.096,717.438 680.184,716.094 679.032,714.942C677.88,713.79 676.536,712.878 675,712.206C673.464,711.534 671.808,711.198 670.032,711.198C668.304,711.198 666.672,711.534 665.136,712.206C663.6,712.878 662.256,713.79 661.104,714.942C659.952,716.094 659.04,717.438 658.368,718.974C657.696,720.51 657.36,722.142 657.36,723.87C657.36,725.646 657.696,727.302 658.368,728.838C659.04,730.374 659.952,731.718 661.104,732.87C662.256,734.022 663.6,734.934 665.136,735.606C666.672,736.278 668.304,736.614 670.032,736.614Z" style="fill-rule:nonzero;"/>
        <path d="M726.552,704.718L726.552,743.094L720.072,743.094L720.072,739.998C717.288,742.062 714.12,743.094 710.568,743.094C706.2,743.094 702.456,741.534 699.336,738.414C697.8,736.878 696.636,735.15 695.844,733.23C695.052,731.31 694.656,729.27 694.656,727.11L694.656,704.718L701.136,704.718L701.136,727.11C701.136,728.406 701.388,729.63 701.892,730.782C702.396,731.934 703.068,732.942 703.908,733.806C704.748,734.67 705.744,735.354 706.896,735.858C708.048,736.362 709.272,736.614 710.568,736.614C711.864,736.614 713.088,736.362 714.24,735.858C715.392,735.354 716.4,734.67 717.264,733.806C718.128,732.942 718.812,731.934 719.316,730.782C719.82,729.63 720.072,728.406 720.072,727.11L720.072,704.718L726.552,704.718Z" style="fill-rule:nonzero;"/>
        <path d="M784.656,709.398C787.776,712.518 789.336,716.262 789.336,720.63L789.336,743.094L782.856,743.094L782.856,720.63C782.856,719.334 782.604,718.11 782.1,716.958C781.596,715.806 780.912,714.81 780.048,713.97C779.184,713.13 778.176,712.458 777.024,711.954C775.872,711.45 774.648,711.198 773.352,711.198C772.056,711.198 770.832,711.45 769.68,711.954C768.528,712.458 767.532,713.13 766.692,713.97C765.852,714.81 765.18,715.806 764.676,716.958C764.172,718.11 763.92,719.334 763.92,720.63L763.92,743.094L757.44,743.094L757.44,720.63C757.44,719.334 757.188,718.11 756.684,716.958C756.18,715.806 755.496,714.81 754.632,713.97C753.768,713.13 752.76,712.458 751.608,711.954C750.456,711.45 749.232,711.198 747.936,711.198C746.64,711.198 745.416,711.45 744.264,711.954C743.112,712.458 742.116,713.13 741.276,713.97C740.436,714.81 739.764,715.806 739.26,716.958C738.756,718.11 738.504,719.334 738.504,720.63L738.504,743.094L732.024,743.094L732.024,704.718L738.504,704.718L738.504,707.814C741.288,705.75 744.432,704.718 747.936,704.718C750.096,704.718 752.136,705.114 754.056,705.906C755.976,706.698 757.704,707.862 759.24,709.398C759.768,709.926 760.248,710.478 760.68,711.054C761.112,710.478 761.592,709.926 762.12,709.398C765.24,706.278 768.984,704.718 773.352,704.718C775.512,704.718 777.552,705.114 779.472,705.906C781.392,706.698 783.12,707.862 784.656,709.398Z" style="fill-rule:nonzero;"/>
        <path d="M825.696,710.334C827.52,712.158 828.912,714.222 829.872,716.526C830.832,718.83 831.312,721.278 831.312,723.87C831.312,726.462 830.832,728.922 829.872,731.25C828.912,733.578 827.52,735.654 825.696,737.478C823.872,739.302 821.796,740.694 819.468,741.654C817.14,742.614 814.68,743.094 812.088,743.094C809.736,743.094 807.48,742.674 805.32,741.834C803.16,740.994 801.192,739.806 799.416,738.27L799.416,758.79L792.936,758.79L792.936,704.718L799.416,704.718L799.416,709.542C801.192,708.006 803.16,706.818 805.32,705.978C807.48,705.138 809.736,704.718 812.088,704.718C814.68,704.718 817.14,705.198 819.468,706.158C821.796,707.118 823.872,708.51 825.696,710.334ZM812.088,736.614C813.864,736.614 815.52,736.278 817.056,735.606C818.592,734.934 819.936,734.022 821.088,732.87C822.24,731.718 823.152,730.374 823.824,728.838C824.496,727.302 824.832,725.646 824.832,723.87C824.832,722.142 824.496,720.51 823.824,718.974C823.152,717.438 822.24,716.094 821.088,714.942C819.936,713.79 818.592,712.878 817.056,712.206C815.52,711.534 813.864,711.198 812.088,711.198C810.36,711.198 808.728,711.534 807.192,712.206C805.656,712.878 804.312,713.79 803.16,714.942C802.008,716.094 801.096,717.438 800.424,718.974C799.752,720.51 799.416,722.142 799.416,723.87C799.416,725.646 799.752,727.302 800.424,728.838C801.096,730.374 802.008,731.718 803.16,732.87C804.312,734.022 805.656,734.934 807.192,735.606C808.728,736.278 810.36,736.614 812.088,736.614Z" style="fill-rule:nonzero;"/>
        <path d="M873.288,704.718L873.288,743.094L866.808,743.094L866.808,738.27C865.032,739.806 863.064,740.994 860.904,741.834C858.744,742.674 856.464,743.094 854.064,743.094C851.472,743.094 849.024,742.614 846.72,741.654C844.416,740.694 842.352,739.302 840.528,737.478C838.704,735.654 837.312,733.578 836.352,731.25C835.392,728.922 834.912,726.462 834.912,723.87C834.912,721.278 835.392,718.83 836.352,716.526C837.312,714.222 838.704,712.158 840.528,710.334C842.352,708.51 844.416,707.118 846.72,706.158C849.024,705.198 851.472,704.718 854.064,704.718C856.464,704.718 858.744,705.138 860.904,705.978C863.064,706.818 865.032,708.006 866.808,709.542L866.808,704.718L873.288,704.718ZM854.064,736.614C855.84,736.614 857.496,736.278 859.032,735.606C860.568,734.934 861.912,734.022 863.064,732.87C864.216,731.718 865.128,730.374 865.8,728.838C866.472,727.302 866.808,725.646 866.808,723.87C866.808,722.142 866.472,720.51 865.8,718.974C865.128,717.438 864.216,716.094 863.064,714.942C861.912,713.79 860.568,712.878 859.032,712.206C857.496,711.534 855.84,711.198 854.064,711.198C852.336,711.198 850.704,711.534 849.168,712.206C847.632,712.878 846.288,713.79 845.136,714.942C843.984,716.094 843.072,717.438 842.4,718.974C841.728,720.51 841.392,722.142 841.392,723.87C841.392,725.646 841.728,727.302 842.4,728.838C843.072,730.374 843.984,731.718 845.136,732.87C846.288,734.022 847.632,734.934 849.168,735.606C850.704,736.278 852.336,736.614 854.064,736.614Z" style="fill-rule:nonzero;"/>
        <path d="M896.904,704.718C899.928,704.574 902.832,705.126 905.616,706.374L903.024,712.278C901.2,711.462 899.28,711.102 897.264,711.198C895.152,711.342 893.208,711.918 891.432,712.926C889.416,714.126 887.88,715.686 886.824,717.606C885.72,719.574 885.168,721.638 885.168,723.798L885.168,743.094L878.688,743.094L878.688,704.718L885.168,704.718L885.168,709.542C886.08,708.678 887.088,707.958 888.192,707.382C890.928,705.75 893.832,704.862 896.904,704.718Z" style="fill-rule:nonzero;"/>
    </g>
</svg>
